ffmpeg started on 2025-06-05 at 20:40:17
Report written to "D:\Convert\FFMetrics\reports\ssim_report-6.txt"
Log level: 32
Command line:
ffmpeg -hide_banner -nostdin -i "G:\\\xc0\xed\xe8\xec\xe5\\\xce\xed\xe3\xee\xe8\xed\xe3\xe8\\!_36_\xce\xf1\xe5\xed\xfc_2024\\DreamCast\\\xcd\xe5\xe7\xed\xe0\xea\xee\xec\xf6\xfb \xe2 \xe4\xf0\xf3\xe3\xee\xe9 \xe6\xe8\xe7\xed\xe8\\[DC] Raise wa Tanin ga Ii - 02_Telegram_HEVC.mkv" -i "G:\\\xc0\xed\xe8\xec\xe5\\\xce\xed\xe3\xee\xe8\xed\xe3\xe8\\!_36_\xce\xf1\xe5\xed\xfc_2024\\DreamCast\\\xcd\xe5\xe7\xed\xe0\xea\xee\xec\xf6\xfb \xe2 \xe4\xf0\xf3\xe3\xee\xe9 \xe6\xe8\xe7\xed\xe8\\[DC] Raise wa Tanin ga Ii - 02_Telegram.mp4" -lavfi "[0:v]settb=AVTB,setpts=PTS-STARTPTS,format=pix_fmts=yuv420p10,fps=24000/1001,scale=1920:1080:flags=bicubic[main];[1:v]settb=AVTB,setpts=PTS-STARTPTS,format=pix_fmts=yuv420p,fps=24000/1001,scale=1920:1080:flags=bicubic[ref];[main][ref]ssim=eof_action=endall:stats_file='D\\:/Convert/FFMetrics/logs/ssim_logfile-6.txt'" -f null -
Input #0, matroska,webm, from 'G:\Аниме\Онгоинги\!_36_Осень_2024\DreamCast\Незнакомцы в другой жизни\[DC] Raise wa Tanin ga Ii - 02_Telegram_HEVC.mkv':
  Metadata:
    COMPATIBLE_BRANDS: isomiso2avc1mp41
    MAJOR_BRAND     : isom
    MINOR_VERSION   : 512
    ENCODER         : Lavf61.7.100
  Duration: 00:23:46.73, start: -0.021000, bitrate: 855 kb/s
  Stream #0:0: Video: hevc (Main 10), yuv420p10le(tv, bt709, progressive), 1920x1080 [SAR 1:1 DAR 16:9], 23.98 fps, 23.98 tbr, 1k tbn (default)
      Metadata:
        HANDLER_NAME    : VideoHandler
        VENDOR_ID       : [0][0][0][0]
        ENCODER         : Lavc61.19.100 libx265
        BPS             : 658356
        DURATION        : 00:23:46.549708333
        NUMBER_OF_FRAMES: 34203
        NUMBER_OF_BYTES : 117397171
        _STATISTICS_WRITING_APP: mkvpropedit v66.0.0 ('Josie') 64-bit
        _STATISTICS_WRITING_DATE_UTC: 2025-05-31 14:53:54
        _STATISTICS_TAGS: BPS DURATION NUMBER_OF_FRAMES NUMBER_OF_BYTES
  Stream #0:1: Audio: aac (LC), 48000 Hz, stereo, fltp (default)
      Metadata:
        HANDLER_NAME    : SoundHandler
        VENDOR_ID       : [0][0][0][0]
        ENCODER         : Lavc61.19.100 aac
        BPS             : 192834
        DURATION        : 00:23:46.730000000
        NUMBER_OF_FRAMES: 66879
        NUMBER_OF_BYTES : 34390333
        _STATISTICS_WRITING_APP: mkvpropedit v66.0.0 ('Josie') 64-bit
        _STATISTICS_WRITING_DATE_UTC: 2025-05-31 14:53:54
        _STATISTICS_TAGS: BPS DURATION NUMBER_OF_FRAMES NUMBER_OF_BYTES
Input #1, mov,mp4,m4a,3gp,3g2,mj2, from 'G:\Аниме\Онгоинги\!_36_Осень_2024\DreamCast\Незнакомцы в другой жизни\[DC] Raise wa Tanin ga Ii - 02_Telegram.mp4':
  Metadata:
    major_brand     : isom
    minor_version   : 512
    compatible_brands: isomiso2avc1mp41
    encoder         : Lavf61.1.100
  Duration: 00:23:46.68, start: 0.000000, bitrate: 3744 kb/s
  Stream #1:0[0x1](und): Video: h264 (High) (avc1 / 0x31637661), yuv420p(tv, bt709, progressive), 1920x1080 [SAR 1:1 DAR 16:9], 3597 kb/s, 23.98 fps, 23.98 tbr, 24k tbn (default)
      Metadata:
        handler_name    : VideoHandler
        vendor_id       : [0][0][0][0]
        encoder         : Lavc61.3.100 h264_qsv
  Stream #1:1[0x2](und): Audio: aac (HE-AACv2) (mp4a / 0x6134706D), 48000 Hz, stereo, fltp, 144 kb/s (default)
      Metadata:
        handler_name    : SoundHandler
        vendor_id       : [0][0][0][0]
Stream mapping:
  Stream #0:0 (hevc) -> settb:default
  Stream #1:0 (h264) -> settb:default
  ssim:default -> Stream #0:0 (wrapped_avframe)
  Stream #0:1 -> #0:1 (aac (native) -> pcm_s16le (native))
Output #0, null, to 'pipe:':
  Metadata:
    COMPATIBLE_BRANDS: isomiso2avc1mp41
    MAJOR_BRAND     : isom
    MINOR_VERSION   : 512
    encoder         : Lavf61.7.100
  Stream #0:0: Video: wrapped_avframe, yuv420p10le(tv, bt709, progressive), 1920x1080 [SAR 1:1 DAR 16:9], q=2-31, 200 kb/s, 23.98 fps, 23.98 tbn
      Metadata:
        encoder         : Lavc61.19.100 wrapped_avframe
  Stream #0:1: Audio: pcm_s16le, 48000 Hz, stereo, s16, 1536 kb/s (default)
      Metadata:
        HANDLER_NAME    : SoundHandler
        VENDOR_ID       : [0][0][0][0]
        _STATISTICS_TAGS: BPS DURATION NUMBER_OF_FRAMES NUMBER_OF_BYTES
        BPS             : 192834
        DURATION        : 00:23:46.730000000
        NUMBER_OF_FRAMES: 66879
        NUMBER_OF_BYTES : 34390333
        _STATISTICS_WRITING_APP: mkvpropedit v66.0.0 ('Josie') 64-bit
        _STATISTICS_WRITING_DATE_UTC: 2025-05-31 14:53:54
        encoder         : Lavc61.19.100 pcm_s16le
frame=  166 fps=0.0 q=-0.0 size=N/A time=00:00:06.92 bitrate=N/A speed=13.4x    frame=  408 fps=392 q=-0.0 size=N/A time=00:00:17.01 bitrate=N/A speed=16.4x    frame=  674 fps=435 q=-0.0 size=N/A time=00:00:28.11 bitrate=N/A speed=18.1x    frame=  943 fps=457 q=-0.0 size=N/A time=00:00:39.33 bitrate=N/A speed=19.1x    frame= 1209 fps=467 q=-0.0 size=N/A time=00:00:50.42 bitrate=N/A speed=19.5x    frame= 1478 fps=477 q=-0.0 size=N/A time=00:01:01.64 bitrate=N/A speed=19.9x    frame= 1741 fps=483 q=-0.0 size=N/A time=00:01:12.61 bitrate=N/A speed=20.1x    frame= 1991 fps=482 q=-0.0 size=N/A time=00:01:23.04 bitrate=N/A speed=20.1x    frame= 2249 fps=485 q=-0.0 size=N/A time=00:01:33.80 bitrate=N/A speed=20.2x    frame= 2512 fps=486 q=-0.0 size=N/A time=00:01:44.77 bitrate=N/A speed=20.3x    frame= 2725 fps=481 q=-0.0 size=N/A time=00:01:53.65 bitrate=N/A speed=  20x    frame= 2950 fps=476 q=-0.0 size=N/A time=00:02:03.03 bitrate=N/A speed=19.9x    frame= 3181 fps=475 q=-0.0 size=N/A time=00:02:12.67 bitrate=N/A speed=19.8x    frame= 3404 fps=471 q=-0.0 size=N/A time=00:02:21.97 bitrate=N/A speed=19.7x    frame= 3645 fps=471 q=-0.0 size=N/A time=00:02:32.02 bitrate=N/A speed=19.7x    frame= 3865 fps=468 q=-0.0 size=N/A time=00:02:41.20 bitrate=N/A speed=19.5x    frame= 4090 fps=466 q=-0.0 size=N/A time=00:02:50.58 bitrate=N/A speed=19.4x    frame= 4331 fps=466 q=-0.0 size=N/A time=00:03:00.68 bitrate=N/A speed=19.4x    frame= 4563 fps=466 q=-0.0 size=N/A time=00:03:10.31 bitrate=N/A speed=19.4x    frame= 4810 fps=466 q=-0.0 size=N/A time=00:03:20.61 bitrate=N/A speed=19.5x    frame= 5042 fps=465 q=-0.0 size=N/A time=00:03:30.29 bitrate=N/A speed=19.4x    frame= 5299 fps=467 q=-0.0 size=N/A time=00:03:41.01 bitrate=N/A speed=19.5x    frame= 5569 fps=469 q=-0.0 size=N/A time=00:03:52.27 bitrate=N/A speed=19.6x    frame= 5823 fps=470 q=-0.0 size=N/A time=00:04:02.86 bitrate=N/A speed=19.6x    frame= 6086 fps=472 q=-0.0 size=N/A time=00:04:13.83 bitrate=N/A speed=19.7x    frame= 6322 fps=471 q=-0.0 size=N/A time=00:04:23.68 bitrate=N/A speed=19.7x    frame= 6582 fps=472 q=-0.0 size=N/A time=00:04:34.52 bitrate=N/A speed=19.7x    frame= 6853 fps=474 q=-0.0 size=N/A time=00:04:45.82 bitrate=N/A speed=19.8x    frame= 7105 fps=475 q=-0.0 size=N/A time=00:04:56.33 bitrate=N/A speed=19.8x    frame= 7331 fps=473 q=-0.0 size=N/A time=00:05:05.76 bitrate=N/A speed=19.7x    frame= 7606 fps=475 q=-0.0 size=N/A time=00:05:17.23 bitrate=N/A speed=19.8x    frame= 7870 fps=476 q=-0.0 size=N/A time=00:05:28.24 bitrate=N/A speed=19.9x    frame= 8120 fps=476 q=-0.0 size=N/A time=00:05:38.67 bitrate=N/A speed=19.9x    frame= 8371 fps=476 q=-0.0 size=N/A time=00:05:49.14 bitrate=N/A speed=19.9x    frame= 8626 fps=477 q=-0.0 size=N/A time=00:05:59.77 bitrate=N/A speed=19.9x    frame= 8872 fps=477 q=-0.0 size=N/A time=00:06:10.03 bitrate=N/A speed=19.9x    frame= 9132 fps=478 q=-0.0 size=N/A time=00:06:20.88 bitrate=N/A speed=19.9x    frame= 9386 fps=478 q=-0.0 size=N/A time=00:06:31.47 bitrate=N/A speed=19.9x    frame= 9572 fps=475 q=-0.0 size=N/A time=00:06:39.23 bitrate=N/A speed=19.8x    frame= 9751 fps=472 q=-0.0 size=N/A time=00:06:46.69 bitrate=N/A speed=19.7x    frame=10001 fps=472 q=-0.0 size=N/A time=00:06:57.12 bitrate=N/A speed=19.7x    frame=10224 fps=471 q=-0.0 size=N/A time=00:07:06.42 bitrate=N/A speed=19.7x    frame=10472 fps=472 q=-0.0 size=N/A time=00:07:16.76 bitrate=N/A speed=19.7x    frame=10725 fps=472 q=-0.0 size=N/A time=00:07:27.32 bitrate=N/A speed=19.7x    frame=10988 fps=473 q=-0.0 size=N/A time=00:07:38.29 bitrate=N/A speed=19.7x    frame=11270 fps=474 q=-0.0 size=N/A time=00:07:50.05 bitrate=N/A speed=19.8x    frame=11521 fps=475 q=-0.0 size=N/A time=00:08:00.52 bitrate=N/A speed=19.8x    frame=11796 fps=476 q=-0.0 size=N/A time=00:08:11.99 bitrate=N/A speed=19.8x    frame=12045 fps=476 q=-0.0 size=N/A time=00:08:22.37 bitrate=N/A speed=19.9x    frame=12290 fps=476 q=-0.0 size=N/A time=00:08:32.59 bitrate=N/A speed=19.9x    frame=12543 fps=476 q=-0.0 size=N/A time=00:08:43.14 bitrate=N/A speed=19.9x    frame=12813 fps=477 q=-0.0 size=N/A time=00:08:54.40 bitrate=N/A speed=19.9x    frame=13091 fps=478 q=-0.0 size=N/A time=00:09:06.00 bitrate=N/A speed=19.9x    frame=13356 fps=479 q=-0.0 size=N/A time=00:09:17.05 bitrate=N/A speed=  20x    frame=13630 fps=480 q=-0.0 size=N/A time=00:09:28.48 bitrate=N/A speed=  20x    frame=13896 fps=480 q=-0.0 size=N/A time=00:09:39.57 bitrate=N/A speed=  20x    frame=14166 fps=481 q=-0.0 size=N/A time=00:09:50.84 bitrate=N/A speed=20.1x    frame=14433 fps=482 q=-0.0 size=N/A time=00:10:01.97 bitrate=N/A speed=20.1x    frame=14690 fps=482 q=-0.0 size=N/A time=00:10:12.69 bitrate=N/A speed=20.1x    frame=14946 fps=482 q=-0.0 size=N/A time=00:10:23.37 bitrate=N/A speed=20.1x    frame=15183 fps=482 q=-0.0 size=N/A time=00:10:33.25 bitrate=N/A speed=20.1x    frame=15420 fps=481 q=-0.0 size=N/A time=00:10:43.14 bitrate=N/A speed=20.1x    frame=15697 fps=482 q=-0.0 size=N/A time=00:10:54.69 bitrate=N/A speed=20.1x    frame=15972 fps=483 q=-0.0 size=N/A time=00:11:06.16 bitrate=N/A speed=20.1x    frame=16254 fps=484 q=-0.0 size=N/A time=00:11:17.92 bitrate=N/A speed=20.2x    frame=16497 fps=484 q=-0.0 size=N/A time=00:11:28.06 bitrate=N/A speed=20.2x    frame=16748 fps=484 q=-0.0 size=N/A time=00:11:38.53 bitrate=N/A speed=20.2x    frame=17001 fps=484 q=-0.0 size=N/A time=00:11:49.08 bitrate=N/A speed=20.2x    frame=17233 fps=483 q=-0.0 size=N/A time=00:11:58.75 bitrate=N/A speed=20.2x    frame=17473 fps=483 q=-0.0 size=N/A time=00:12:08.76 bitrate=N/A speed=20.2x    frame=17721 fps=483 q=-0.0 size=N/A time=00:12:19.11 bitrate=N/A speed=20.2x    frame=17979 fps=483 q=-0.0 size=N/A time=00:12:29.87 bitrate=N/A speed=20.2x    frame=18224 fps=483 q=-0.0 size=N/A time=00:12:40.09 bitrate=N/A speed=20.2x    frame=18458 fps=483 q=-0.0 size=N/A time=00:12:49.85 bitrate=N/A speed=20.1x    frame=18724 fps=483 q=-0.0 size=N/A time=00:13:00.94 bitrate=N/A speed=20.2x    frame=19010 fps=484 q=-0.0 size=N/A time=00:13:12.87 bitrate=N/A speed=20.2x    frame=19271 fps=485 q=-0.0 size=N/A time=00:13:23.76 bitrate=N/A speed=20.2x    frame=19525 fps=485 q=-0.0 size=N/A time=00:13:34.35 bitrate=N/A speed=20.2x    frame=19797 fps=485 q=-0.0 size=N/A time=00:13:45.69 bitrate=N/A speed=20.2x    frame=20059 fps=485 q=-0.0 size=N/A time=00:13:56.62 bitrate=N/A speed=20.2x    frame=20313 fps=486 q=-0.0 size=N/A time=00:14:07.22 bitrate=N/A speed=20.3x    frame=20547 fps=485 q=-0.0 size=N/A time=00:14:16.98 bitrate=N/A speed=20.2x    frame=20765 fps=484 q=-0.0 size=N/A time=00:14:26.07 bitrate=N/A speed=20.2x    frame=20999 fps=484 q=-0.0 size=N/A time=00:14:35.83 bitrate=N/A speed=20.2x    frame=21255 fps=484 q=-0.0 size=N/A time=00:14:46.51 bitrate=N/A speed=20.2x    frame=21535 fps=485 q=-0.0 size=N/A time=00:14:58.18 bitrate=N/A speed=20.2x    frame=21805 fps=485 q=-0.0 size=N/A time=00:15:09.45 bitrate=N/A speed=20.2x    frame=22071 fps=486 q=-0.0 size=N/A time=00:15:20.54 bitrate=N/A speed=20.3x    frame=22343 fps=486 q=-0.0 size=N/A time=00:15:31.88 bitrate=N/A speed=20.3x    frame=22612 fps=487 q=-0.0 size=N/A time=00:15:43.10 bitrate=N/A speed=20.3x    frame=22873 fps=487 q=-0.0 size=N/A time=00:15:53.99 bitrate=N/A speed=20.3x    frame=23139 fps=487 q=-0.0 size=N/A time=00:16:05.08 bitrate=N/A speed=20.3x    frame=23423 fps=488 q=-0.0 size=N/A time=00:16:16.93 bitrate=N/A speed=20.3x    frame=23683 fps=488 q=-0.0 size=N/A time=00:16:27.77 bitrate=N/A speed=20.4x    frame=23961 fps=488 q=-0.0 size=N/A time=00:16:39.37 bitrate=N/A speed=20.4x    frame=24210 fps=488 q=-0.0 size=N/A time=00:16:49.75 bitrate=N/A speed=20.4x    frame=24469 fps=489 q=-0.0 size=N/A time=00:17:00.56 bitrate=N/A speed=20.4x    frame=24715 fps=488 q=-0.0 size=N/A time=00:17:10.82 bitrate=N/A speed=20.4x    frame=24959 fps=488 q=-0.0 size=N/A time=00:17:20.99 bitrate=N/A speed=20.4x    frame=25195 fps=488 q=-0.0 size=N/A time=00:17:30.84 bitrate=N/A speed=20.4x    frame=25433 fps=488 q=-0.0 size=N/A time=00:17:40.76 bitrate=N/A speed=20.3x    frame=25653 fps=487 q=-0.0 size=N/A time=00:17:49.94 bitrate=N/A speed=20.3x    frame=25896 fps=487 q=-0.0 size=N/A time=00:18:00.07 bitrate=N/A speed=20.3x    frame=26118 fps=486 q=-0.0 size=N/A time=00:18:09.33 bitrate=N/A speed=20.3x    frame=26316 fps=485 q=-0.0 size=N/A time=00:18:17.59 bitrate=N/A speed=20.2x    frame=26479 fps=484 q=-0.0 size=N/A time=00:18:24.39 bitrate=N/A speed=20.2x    frame=26702 fps=483 q=-0.0 size=N/A time=00:18:33.69 bitrate=N/A speed=20.2x    frame=26961 fps=483 q=-0.0 size=N/A time=00:18:44.49 bitrate=N/A speed=20.2x    frame=27240 fps=484 q=-0.0 size=N/A time=00:18:56.13 bitrate=N/A speed=20.2x    frame=27503 fps=484 q=-0.0 size=N/A time=00:19:07.10 bitrate=N/A speed=20.2x    frame=27752 fps=484 q=-0.0 size=N/A time=00:19:17.48 bitrate=N/A speed=20.2x    frame=28036 fps=485 q=-0.0 size=N/A time=00:19:29.33 bitrate=N/A speed=20.2x    frame=28304 fps=485 q=-0.0 size=N/A time=00:19:40.51 bitrate=N/A speed=20.2x    frame=28564 fps=485 q=-0.0 size=N/A time=00:19:51.35 bitrate=N/A speed=20.2x    frame=28780 fps=485 q=-0.0 size=N/A time=00:20:00.36 bitrate=N/A speed=20.2x    frame=29030 fps=485 q=-0.0 size=N/A time=00:20:10.79 bitrate=N/A speed=20.2x    frame=29283 fps=485 q=-0.0 size=N/A time=00:20:21.34 bitrate=N/A speed=20.2x    frame=29531 fps=485 q=-0.0 size=N/A time=00:20:31.68 bitrate=N/A speed=20.2x    frame=29766 fps=484 q=-0.0 size=N/A time=00:20:41.49 bitrate=N/A speed=20.2x    frame=30019 fps=485 q=-0.0 size=N/A time=00:20:52.04 bitrate=N/A speed=20.2x    frame=30297 fps=485 q=-0.0 size=N/A time=00:21:03.63 bitrate=N/A speed=20.2x    frame=30563 fps=485 q=-0.0 size=N/A time=00:21:14.73 bitrate=N/A speed=20.2x    frame=30823 fps=485 q=-0.0 size=N/A time=00:21:25.57 bitrate=N/A speed=20.2x    frame=31094 fps=486 q=-0.0 size=N/A time=00:21:36.87 bitrate=N/A speed=20.3x    frame=31314 fps=485 q=-0.0 size=N/A time=00:21:46.05 bitrate=N/A speed=20.2x    frame=31531 fps=485 q=-0.0 size=N/A time=00:21:55.10 bitrate=N/A speed=20.2x    frame=31754 fps=484 q=-0.0 size=N/A time=00:22:04.40 bitrate=N/A speed=20.2x    frame=31979 fps=484 q=-0.0 size=N/A time=00:22:13.79 bitrate=N/A speed=20.2x    frame=32220 fps=484 q=-0.0 size=N/A time=00:22:23.84 bitrate=N/A speed=20.2x    frame=32468 fps=484 q=-0.0 size=N/A time=00:22:34.18 bitrate=N/A speed=20.2x    frame=32671 fps=483 q=-0.0 size=N/A time=00:22:42.65 bitrate=N/A speed=20.1x    frame=32881 fps=483 q=-0.0 size=N/A time=00:22:51.41 bitrate=N/A speed=20.1x    frame=33087 fps=482 q=-0.0 size=N/A time=00:23:00.00 bitrate=N/A speed=20.1x    frame=33273 fps=481 q=-0.0 size=N/A time=00:23:07.76 bitrate=N/A speed=20.1x    frame=33444 fps=480 q=-0.0 size=N/A time=00:23:14.89 bitrate=N/A speed=  20x    frame=33642 fps=479 q=-0.0 size=N/A time=00:23:23.15 bitrate=N/A speed=  20x    frame=33795 fps=478 q=-0.0 size=N/A time=00:23:29.53 bitrate=N/A speed=19.9x    frame=34024 fps=477 q=-0.0 size=N/A time=00:23:39.08 bitrate=N/A speed=19.9x    [Parsed_ssim_10 @ 000001ef82249000] SSIM Y:0.995359 (23.333786) U:0.994439 (22.548663) V:0.994484 (22.583790) All:0.995060 (23.062564)
[out#0/null @ 000001eff557f080] video:14697KiB audio:267516KiB subtitle:0KiB other streams:0KiB global headers:0KiB muxing overhead: unknown
frame=34203 fps=478 q=-0.0 Lsize=N/A time=00:23:46.55 bitrate=N/A speed=19.9x    
